<?xml version="1.0" encoding="UTF-8" standalone="no"?>
<!--
Copyright (C) 2015-2016 The R Foundation

You can distribute this logo under the terms of the Creative
Commons Attribution-ShareAlike 4.0 International license (CC-BY-SA
4.0) or (at your option) the GNU General Public License version 2
(GPL-2).

This program is distributed in the hope that it will be useful,
but WITHOUT ANY WARRANTY; without even the implied warranty of
MERCHANTABILITY or FITNESS FOR A PARTICULAR PURPOSE.  

You should have received a copy of the GNU General Public License
along with this program; if not, a copy is available at
https://www.R-project.org/Licenses/

The text of the CC BY-SA 4.0 license is available at
https://creativecommons.org/licenses/by-sa/4.0/
-->

<svg
   xmlns:dc="http://purl.org/dc/elements/1.1/"
   xmlns:cc="http://creativecommons.org/ns#"
   xmlns:rdf="http://www.w3.org/1999/02/22-rdf-syntax-ns#"
   xmlns:svg="http://www.w3.org/2000/svg"
   xmlns="http://www.w3.org/2000/svg"
   xmlns:sodipodi="http://sodipodi.sourceforge.net/DTD/sodipodi-0.dtd"
   xmlns:inkscape="http://www.inkscape.org/namespaces/inkscape"
   preserveAspectRatio="xMidYMid"
   width="19.63166cm"
   height="7.1956215cm"
   viewBox="0 0 1963.166 719.56215"
   version="1.1"
   id="svg3775"
   sodipodi:docname="Rday-big-russo.svg"
   inkscape:version="0.92.1 r">
  <metadata
     id="metadata3779">
    <rdf:RDF>
      <cc:Work
         rdf:about="">
        <dc:format>image/svg+xml</dc:format>
        <dc:type
           rdf:resource="http://purl.org/dc/dcmitype/StillImage" />
        <dc:title></dc:title>
      </cc:Work>
    </rdf:RDF>
  </metadata>
  <sodipodi:namedview
     pagecolor="#ffffff"
     bordercolor="#666666"
     borderopacity="1"
     objecttolerance="10"
     gridtolerance="10"
     guidetolerance="10"
     inkscape:pageopacity="0"
     inkscape:pageshadow="2"
     inkscape:window-width="1680"
     inkscape:window-height="981"
     id="namedview3777"
     showgrid="false"
     inkscape:document-units="cm"
     units="cm"
     scale-x="100"
     fit-margin-top="0.1"
     fit-margin-left="0.1"
     fit-margin-right="0.1"
     fit-margin-bottom="0.1"
     inkscape:zoom="1.4099822"
     inkscape:cx="431.36911"
     inkscape:cy="64.84647"
     inkscape:window-x="1024"
     inkscape:window-y="27"
     inkscape:window-maximized="1"
     inkscape:current-layer="svg3775"
     inkscape:snap-text-baseline="false" />
  <defs
     id="defs3769">
    <linearGradient
       id="gradientFill-1"
       x1="0.7414425"
       x2="590.86261"
       y1="3.6658268"
       y2="593.78699"
       gradientUnits="userSpaceOnUse"
       spreadMethod="pad"
       gradientTransform="matrix(1.2219423,0,0,0.81836924,9.094,7)">
      <stop
         offset="0"
         stop-color="rgb(203,206,208)"
         stop-opacity="1"
         id="stop3759" />
      <stop
         offset="1"
         stop-color="rgb(132,131,139)"
         stop-opacity="1"
         id="stop3761" />
    </linearGradient>
    <linearGradient
       id="gradientFill-2"
       x1="301.02603"
       x2="703.0675"
       y1="151.4006"
       y2="553.44208"
       gradientUnits="userSpaceOnUse"
       spreadMethod="pad"
       gradientTransform="matrix(0.9899476,0,0,1.0101545,9.094,7)">
      <stop
         offset="0"
         stop-color="rgb(39,109,195)"
         stop-opacity="1"
         id="stop3764" />
      <stop
         offset="1"
         stop-color="rgb(22,92,170)"
         stop-opacity="1"
         id="stop3766" />
    </linearGradient>
  </defs>
  <g
     id="g3853"
     transform="matrix(1.25,0,0,1.25,-2.5000004,-2.5000004)">
    <path
       style="fill:url(#gradientFill-1);fill-rule:evenodd"
       inkscape:connector-curvature="0"
       id="path3771"
       d="M 370.547,492.93702 C 171.423,492.93702 10,384.82802 10,251.46902 10,118.10902 171.423,10 370.547,10 c 199.125,0 360.547,108.10902 360.547,241.46902 0,133.359 -161.422,241.468 -360.547,241.468 z m 55.188,-388.53101 c -151.352,0 -274.047,73.90801 -274.047,165.07801 0,91.17 122.695,165.078 274.047,165.078 151.351,0 263.046,-50.529 263.046,-165.078 0,-114.513 -111.695,-165.07801 -263.046,-165.07801 z" />
  </g>
  <g
     id="g3856"
     transform="matrix(1.25,0,0,1.25,-2.5000004,-2.5000004)">
    <path
       style="fill:url(#gradientFill-2);fill-rule:evenodd"
       inkscape:connector-curvature="0"
       id="path3773"
       d="m 559.094,384.00002 c 0,0 21.822,6.585 34.5,13 4.399,2.226 12.01,6.668 17.5,12.5 5.378,5.712 8,11.5 8,11.5 l 86,145 -139,0.062 -65,-122.062 c 0,0 -13.31,-22.869 -21.5,-29.5 -6.832,-5.531 -9.745,-7.5 -16.5,-7.5 -4.702,0 -33.026,0 -33.026,0 l 0.026,158.974 -123,0.052 v -406.088 h 247 c 0,0 112.5,2.029 112.5,109.062 0,107.033 -107.5,115 -107.5,115 z m -53.5,-135.976 -74.463,-0.048 -0.037,69.05 74.5,-0.024 c 0,0 34.5,-0.107 34.5,-35.125 0,-35.722 -34.5,-33.853 -34.5,-33.853 z" />
  </g>
  <g
     id="g3861"
     transform="matrix(1.25,0,0,1.25,8.0833326,18.666665)">
    <text
       id="text3812"
       y="479.56436"
       x="785.27136"
       style="font-style:normal;font-variant:normal;font-weight:normal;font-stretch:normal;font-size:406.3999939px;line-height:1.25;font-family:'Russo One';-inkscape-font-specification:'Russo One';text-align:start;letter-spacing:0px;word-spacing:0px;text-anchor:start;fill:#000000;fill-opacity:1;stroke:none;stroke-width:2.64583325"
       xml:space="preserve"><tspan
         style="font-style:normal;font-variant:normal;font-weight:normal;font-stretch:normal;font-size:406.3999939px;font-family:'Russo One';-inkscape-font-specification:'Russo One';stroke-width:2.64583325"
         id="tspan3810"
         y="479.56436"
         x="785.27136"
         sodipodi:role="line"><tspan
           id="tspan3808"
           style="font-style:normal;font-variant:normal;font-weight:normal;font-stretch:normal;font-size:406.3999939px;font-family:'Russo One';-inkscape-font-specification:'Russo One';text-align:start;text-anchor:start;stroke-width:2.64583325"
           y="479.56436"
           x="785.27136">Day</tspan></tspan></text>
  </g>
</svg>
