<?xml version="1.0" encoding="utf-8"?>
<!-- Generator: Adobe Illustrator 19.1.0, SVG Export Plug-In . SVG Version: 6.00 Build 0)  -->
<svg version="1.1" id="Layer_1" xmlns="http://www.w3.org/2000/svg" xmlns:xlink="http://www.w3.org/1999/xlink" x="0px" y="0px"
	 viewBox="0 0 350 80.7" style="enable-background:new 0 0 350 80.7;" xml:space="preserve">
<style type="text/css">
	.st0{fill:#354250;}
	.st1{fill:url(#PRIMARIO_1_);}
	.st2{fill:url(#TER_ESQ_1_);}
	.st3{fill:url(#TER_DIR_1_);}
	.st4{fill:url(#SEC_DIR_1_);}
	.st5{fill:url(#SEC_ESQ_1_);}
</style>
<g>
	<g>
		<path class="st0" d="M113,44.3c0-8.4,6.4-15.3,15.4-15.3c3.5,0,6.4,0.9,8.8,2.3v2.9c-2.6-1.5-5.5-2.4-8.4-2.4
			c-7.3,0-12.8,5.4-12.8,12.6c0,7.1,5.5,12.5,12.8,12.5c3.6,0,6.5-1,9-2.7V57c-2.6,1.7-5.8,2.6-9.4,2.6
			C119.4,59.6,113,52.7,113,44.3z"/>
		<path class="st0" d="M144.4,44.3c0-8.1,6.1-15.4,15.5-15.4c9.5,0,15.6,7.3,15.6,15.4c0,8.1-6.1,15.3-15.6,15.3
			C150.5,59.6,144.4,52.4,144.4,44.3z M172.4,44.3c0-7.1-5.4-12.6-12.5-12.6s-12.5,5.5-12.5,12.6c0,7,5.4,12.5,12.5,12.5
			S172.4,51.4,172.4,44.3z"/>
		<path class="st0" d="M184.2,52.8V16.1h3v36c0,3.1,1.5,4.6,4.3,4.6c1.2,0,2.1-0.3,3.1-0.9v2.9c-1.2,0.7-2.6,0.9-4,0.9
			C187.6,59.6,184.2,58.2,184.2,52.8z"/>
		<path class="st0" d="M199.2,44.3c0-8.7,5.9-15.4,14.5-15.4c10.2,0,13.5,9,13.5,14.8v1h-25c0.2,7.2,5.7,12.1,13.4,12.1
			c3.8,0,7-1.1,9.4-2.7V57c-2,1.5-5.6,2.6-9.8,2.6C206.1,59.6,199.2,53.3,199.2,44.3z M224.3,42.2c0-4.1-2.8-10.5-10.6-10.5
			c-7.1,0-11.1,5.5-11.4,10.5H224.3z"/>
		<path class="st0" d="M239.4,51.1V32.4H232v-2.7h7.4v-9.3h3v9.3h10.7v2.7h-10.7v18c0,4.8,1.6,6.4,5.4,6.4c2.2,0,3.9-0.8,4.9-1.3
			v2.9c-1,0.7-3.4,1.3-5.7,1.3C241.7,59.6,239.4,56.2,239.4,51.1z"/>
		<path class="st0" d="M287.7,29.7v29.2h-3v-5c-2.3,2.8-6.6,5.7-12.3,5.7c-7.6,0-11.3-4.5-11.3-12.2V29.7h3v17.2
			c0,8.6,5.4,10,9.2,10c4.6,0,9.4-3.4,11.4-6.7V29.7H287.7z"/>
		<path class="st0" d="M298.7,29.7h3v4.8c1.9-2.9,5.7-5.5,11-5.5c5.1,0,8.2,2.3,9.5,6.2c2.1-3.1,6-6.2,11.7-6.2
			c6.6,0,10.4,4.2,10.4,11.7v18.2h-3V41.3c0-8.4-5.2-9.5-8.1-9.5c-4.3,0-8.5,3.2-10.3,6.8c0.1,1.2,0.1,1.9,0.1,3.1v17.2h-3V41.2
			c0-8.5-5.1-9.5-8.1-9.5c-4.1,0-8.2,2.9-10.2,6.5v20.6h-3V29.7z"/>
	</g>
	<g>
		
			<linearGradient id="PRIMARIO_1_" gradientUnits="userSpaceOnUse" x1="46.8597" y1="-16289.041" x2="46.8597" y2="-16353.583" gradientTransform="matrix(1 0 0 -1 0 -16282)">
			<stop  offset="0" style="stop-color:#67A396"/>
			<stop  offset="1" style="stop-color:#379C96"/>
		</linearGradient>
		<path id="PRIMARIO_9_" class="st1" d="M79.1,9.5l-4.3,9.2l-4.3,9.2L46.9,78.7L23.2,27.9l-4.3-9.2l-4.3-9.2
			c9.8-4.6,20.7-7.1,32.3-7.1S69.3,4.9,79.1,9.5z"/>
		<linearGradient id="TER_ESQ_1_" gradientUnits="userSpaceOnUse" x1="38.6498" y1="69.954" x2="12.1855" y2="46.6704">
			<stop  offset="0" style="stop-color:#7AA5A7"/>
			<stop  offset="1" style="stop-color:#98BDBB"/>
		</linearGradient>
		<path id="TER_ESQ_9_" class="st2" d="M46.9,78.7L1,46.6c2.8-4,6.1-7.6,9.9-10.8L46.9,78.7z"/>
		<linearGradient id="TER_DIR_1_" gradientUnits="userSpaceOnUse" x1="54.1047" y1="70.5551" x2="79.0423" y2="48.7983">
			<stop  offset="0" style="stop-color:#7AA5A7"/>
			<stop  offset="1" style="stop-color:#98BDBB"/>
		</linearGradient>
		<path id="TER_DIR_9_" class="st3" d="M92.7,46.6L46.9,78.7l36-42.9C86.6,38.9,89.9,42.5,92.7,46.6z"/>
		<linearGradient id="SEC_DIR_1_" gradientUnits="userSpaceOnUse" x1="53.5118" y1="70.7462" x2="76.9226" y2="31.9403">
			<stop  offset="0" style="stop-color:#26323E"/>
			<stop  offset="1" style="stop-color:#354250"/>
		</linearGradient>
		<path id="SEC_DIR_9_" class="st4" d="M89.4,28l-6.5,7.8l-36,42.9l23.7-50.7l4.3-9.2C80.1,21.2,85,24.3,89.4,28z"/>
		<linearGradient id="SEC_ESQ_1_" gradientUnits="userSpaceOnUse" x1="41.6661" y1="69.1276" x2="17.1102" y2="31.7212">
			<stop  offset="0" style="stop-color:#26323E"/>
			<stop  offset="1" style="stop-color:#354250"/>
		</linearGradient>
		<path id="SEC_ESQ_9_" class="st5" d="M46.9,78.7l-36-42.9L4.3,28c4.4-3.7,9.3-6.8,14.6-9.3l4.3,9.2L46.9,78.7z"/>
	</g>
</g>
</svg>
