<?xml version="1.0" encoding="utf-8"?>
<!-- Generator: Adobe Illustrator 19.1.0, SVG Export Plug-In . SVG Version: 6.00 Build 0)  -->
<svg version="1.1" id="Layer_1" xmlns="http://www.w3.org/2000/svg" xmlns:xlink="http://www.w3.org/1999/xlink" x="0px" y="0px"
	 viewBox="0 0 280.4 227.1" style="enable-background:new 0 0 280.4 227.1;" xml:space="preserve">
<style type="text/css">
	.st0{fill:#354250;}
	.st1{fill:url(#PRIMARIO_1_);}
	.st2{fill:url(#TER_ESQ_1_);}
	.st3{fill:url(#TER_DIR_1_);}
	.st4{fill:url(#SEC_DIR_1_);}
	.st5{fill:url(#SEC_ESQ_1_);}
</style>
<g>
	<g>
		<path class="st0" d="M3.9,202.3c0-9.9,7.5-18.1,18.2-18.1c4.1,0,7.6,1,10.4,2.7v3.4c-3.1-1.8-6.5-2.8-9.9-2.8
			c-8.6,0-15,6.4-15,14.9c0,8.4,6.5,14.8,15,14.8c4.2,0,7.6-1.2,10.6-3.2v3.5c-3.1,2-6.8,3-11.1,3C11.4,220.4,3.9,212.3,3.9,202.3z"
			/>
		<path class="st0" d="M40.9,202.4c0-9.6,7.2-18.1,18.3-18.1c11.2,0,18.4,8.6,18.4,18.1c0,9.5-7.2,18-18.4,18
			C48.1,220.4,40.9,211.9,40.9,202.4z M73.9,202.4c0-8.4-6.4-14.9-14.8-14.9c-8.4,0-14.7,6.5-14.7,14.9c0,8.3,6.3,14.8,14.7,14.8
			C67.5,217.2,73.9,210.7,73.9,202.4z"/>
		<path class="st0" d="M87.8,212.3v-43.2h3.5v42.4c0,3.7,1.7,5.5,5,5.5c1.4,0,2.5-0.4,3.6-1v3.4c-1.4,0.8-3.1,1-4.7,1
			C91.9,220.4,87.8,218.8,87.8,212.3z"/>
		<path class="st0" d="M105.6,202.4c0-10.3,7-18.1,17.1-18.1c12,0,15.9,10.6,15.9,17.5v1.2h-29.5c0.3,8.5,6.7,14.3,15.8,14.3
			c4.5,0,8.3-1.3,11.1-3.2v3.4c-2.3,1.7-6.6,3.1-11.6,3.1C113.7,220.4,105.6,213,105.6,202.4z M135.1,199.9
			c0-4.8-3.3-12.4-12.5-12.4c-8.4,0-13.1,6.5-13.5,12.4H135.1z"/>
		<path class="st0" d="M152.9,210.4v-22.1h-8.7v-3.2h8.7v-11h3.5v11h12.7v3.2h-12.7v21.2c0,5.7,1.9,7.6,6.4,7.6
			c2.6,0,4.6-0.9,5.8-1.6v3.4c-1.2,0.9-4,1.6-6.7,1.6C155.6,220.4,152.9,216.4,152.9,210.4z"/>
		<path class="st0" d="M209.9,185.1v34.4h-3.5v-5.9c-2.7,3.3-7.8,6.8-14.5,6.8c-8.9,0-13.3-5.3-13.3-14.3v-21h3.5v20.2
			c0,10.2,6.3,11.7,10.9,11.7c5.5,0,11.1-4,13.5-7.8v-24.1H209.9z"/>
		<path class="st0" d="M222.8,185.1h3.5v5.6c2.2-3.4,6.8-6.5,13-6.5c6,0,9.6,2.7,11.2,7.3c2.5-3.7,7.1-7.3,13.8-7.3
			c7.8,0,12.2,4.9,12.2,13.8v21.5h-3.5v-20.7c0-9.9-6.1-11.2-9.6-11.2c-5,0-10,3.7-12.1,8.1c0.1,1.4,0.1,2.2,0.1,3.6v20.3h-3.5
			v-20.8c0-10-6-11.2-9.5-11.2c-4.8,0-9.6,3.5-12,7.7v24.3h-3.5V185.1z"/>
	</g>
	<g>
		
			<linearGradient id="PRIMARIO_1_" gradientUnits="userSpaceOnUse" x1="140.7171" y1="-15834.7939" x2="140.7171" y2="-15961.6133" gradientTransform="matrix(1 0 0 -1 0 -15822)">
			<stop  offset="0" style="stop-color:#67A396"/>
			<stop  offset="1" style="stop-color:#379C96"/>
		</linearGradient>
		<path id="PRIMARIO_8_" class="st1" d="M204.1,17.6l-8.4,18.1l-8.5,18.1l-46.5,99.7L94.2,53.8l-8.5-18.1l-8.4-18.1
			c19.3-9,40.8-14,63.4-14S184.9,8.6,204.1,17.6z"/>
		<linearGradient id="TER_ESQ_1_" gradientUnits="userSpaceOnUse" x1="124.5855" y1="136.4118" x2="72.5855" y2="90.6618">
			<stop  offset="0" style="stop-color:#7AA5A7"/>
			<stop  offset="1" style="stop-color:#98BDBB"/>
		</linearGradient>
		<path id="TER_ESQ_8_" class="st2" d="M140.7,153.5L50.6,90.4c5.5-7.9,12.1-15,19.4-21.2L140.7,153.5z"/>
		<linearGradient id="TER_DIR_1_" gradientUnits="userSpaceOnUse" x1="154.9528" y1="137.5929" x2="203.9528" y2="94.8429">
			<stop  offset="0" style="stop-color:#7AA5A7"/>
			<stop  offset="1" style="stop-color:#98BDBB"/>
		</linearGradient>
		<path id="TER_DIR_8_" class="st3" d="M230.8,90.4l-90.1,63.1l70.7-84.3C218.8,75.4,225.3,82.6,230.8,90.4z"/>
		<linearGradient id="SEC_DIR_1_" gradientUnits="userSpaceOnUse" x1="153.7879" y1="137.9684" x2="199.7879" y2="61.7184">
			<stop  offset="0" style="stop-color:#26323E"/>
			<stop  offset="1" style="stop-color:#354250"/>
		</linearGradient>
		<path id="SEC_DIR_8_" class="st4" d="M224.3,54l-12.9,15.3l-70.7,84.3l46.5-99.7l8.5-18.1C206,40.5,215.6,46.7,224.3,54z"/>
		<linearGradient id="SEC_ESQ_1_" gradientUnits="userSpaceOnUse" x1="130.5121" y1="134.788" x2="82.2621" y2="61.288">
			<stop  offset="0" style="stop-color:#26323E"/>
			<stop  offset="1" style="stop-color:#354250"/>
		</linearGradient>
		<path id="SEC_ESQ_8_" class="st5" d="M140.7,153.5L70,69.3L57.2,54c8.7-7.3,18.2-13.4,28.6-18.3l8.5,18.1L140.7,153.5z"/>
	</g>
</g>
</svg>
